# xmcd CD database file
#
# Track frame offsets:
#	150
#	20711
#	48395
#	61323
#	86987
#	111069
#	134656
#	156131
#	173546
#	203389
#	226211
#	257483
#	285333
#
# Disc length: 4187 seconds
#
# Revision: 0
# Processed by: cddbd v1.5.2PL0 Copyright (c) Steve Scherf et al.
# Submitted via: CDex 1.51
#
DISCID=a810590d
DTITLE=Jeff Bjorck - Pure Piano
DYEAR=2005
DGENRE=New Age
TTITLE0=Your Love Has Made Me Fly
TTITLE1=Catskill Mountain Meadow
TTITLE2=Porch Swing Summer Night
TTITLE3=Joshua Trees
TTITLE4=Waiting For Farewell
TTITLE5=Return To Catskill Meadow
TTITLE6=Feather's Flight
TTITLE7=Sun Shower
TTITLE8=Sculptor Of The Sky
TTITLE9=The Homestead
TTITLE10=Campfire Remembrance
TTITLE11=Desert Cloudburst
TTITLE12=Day By Day
EXTD=YEAR: 2005
EXTT0=
EXTT1=
EXTT2=
EXTT3=
EXTT4=
EXTT5=
EXTT6=
EXTT7=
EXTT8=
EXTT9=
EXTT10=
EXTT11=
EXTT12=
PLAYORDER=
